<svg id="visual" viewBox="0 0 900 600" width="900" height="600" xmlns="http://www.w3.org/2000/svg" xmlns:xlink="http://www.w3.org/1999/xlink" version="1.1"><rect x="0" y="0" width="900" height="600" fill="#F7F9F1"></rect><defs><linearGradient id="grad1_0" x1="33.3%" y1="0%" x2="100%" y2="100%"><stop offset="20%" stop-color="#7286a0" stop-opacity="1"></stop><stop offset="80%" stop-color="#7286a0" stop-opacity="1"></stop></linearGradient></defs><defs><linearGradient id="grad1_1" x1="33.3%" y1="0%" x2="100%" y2="100%"><stop offset="20%" stop-color="#7286a0" stop-opacity="1"></stop><stop offset="80%" stop-color="#f7f9f1" stop-opacity="1"></stop></linearGradient></defs><defs><linearGradient id="grad2_0" x1="0%" y1="0%" x2="66.7%" y2="100%"><stop offset="20%" stop-color="#7286a0" stop-opacity="1"></stop><stop offset="80%" stop-color="#7286a0" stop-opacity="1"></stop></linearGradient></defs><defs><linearGradient id="grad2_1" x1="0%" y1="0%" x2="66.7%" y2="100%"><stop offset="20%" stop-color="#f7f9f1" stop-opacity="1"></stop><stop offset="80%" stop-color="#7286a0" stop-opacity="1"></stop></linearGradient></defs><g transform="translate(900, 0)"><path d="M0 486.7C-87 475.1 -174.1 463.5 -243.4 421.5C-312.7 379.6 -364.2 307.3 -401.8 232C-439.4 156.7 -463.1 78.3 -486.7 0L0 0Z" fill="#a6c2c0"></path><path d="M0 243.4C-43.5 237.6 -87 231.7 -121.7 210.8C-156.3 189.8 -182.1 153.7 -200.9 116C-219.7 78.3 -231.5 39.2 -243.4 0L0 0Z" fill="#7286a0"></path></g><g transform="translate(0, 600)"><path d="M0 -486.7C83.4 -471.9 166.8 -457 241.5 -418.3C316.2 -379.6 382.1 -317.1 421.5 -243.4C461 -169.7 473.9 -84.8 486.7 0L0 0Z" fill="#a6c2c0"></path><path d="M0 -243.4C41.7 -235.9 83.4 -228.5 120.7 -209.1C158.1 -189.8 191.1 -158.5 210.8 -121.7C230.5 -84.8 236.9 -42.4 243.4 0L0 0Z" fill="#7286a0"></path></g></svg>