<svg id="visual" viewBox="0 0 900 600" width="900" height="600" xmlns="http://www.w3.org/2000/svg" xmlns:xlink="http://www.w3.org/1999/xlink" version="1.1"><rect x="0" y="0" width="900" height="600" fill="#FFA69E"></rect><defs><linearGradient id="grad1_0" x1="33.3%" y1="0%" x2="100%" y2="100%"><stop offset="20%" stop-color="#7286a0" stop-opacity="1"></stop><stop offset="80%" stop-color="#7286a0" stop-opacity="1"></stop></linearGradient></defs><defs><linearGradient id="grad1_1" x1="33.3%" y1="0%" x2="100%" y2="100%"><stop offset="20%" stop-color="#7286a0" stop-opacity="1"></stop><stop offset="80%" stop-color="#bd93ba" stop-opacity="1"></stop></linearGradient></defs><defs><linearGradient id="grad1_2" x1="33.3%" y1="0%" x2="100%" y2="100%"><stop offset="20%" stop-color="#ffa69e" stop-opacity="1"></stop><stop offset="80%" stop-color="#bd93ba" stop-opacity="1"></stop></linearGradient></defs><defs><linearGradient id="grad2_0" x1="0%" y1="0%" x2="66.7%" y2="100%"><stop offset="20%" stop-color="#7286a0" stop-opacity="1"></stop><stop offset="80%" stop-color="#7286a0" stop-opacity="1"></stop></linearGradient></defs><defs><linearGradient id="grad2_1" x1="0%" y1="0%" x2="66.7%" y2="100%"><stop offset="20%" stop-color="#bd93ba" stop-opacity="1"></stop><stop offset="80%" stop-color="#7286a0" stop-opacity="1"></stop></linearGradient></defs><defs><linearGradient id="grad2_2" x1="0%" y1="0%" x2="66.7%" y2="100%"><stop offset="20%" stop-color="#bd93ba" stop-opacity="1"></stop><stop offset="80%" stop-color="#ffa69e" stop-opacity="1"></stop></linearGradient></defs><g transform="translate(900, 0)"><path d="M0 486.7C-85 473.9 -169.9 461.1 -243.4 421.5C-316.8 382 -378.8 315.7 -417.4 241C-456.1 166.3 -471.4 83.1 -486.7 0L0 0Z" fill="#e599b1"></path><path d="M0 324.5C-56.6 315.9 -113.3 307.4 -162.2 281C-211.2 254.7 -252.5 210.5 -278.3 160.7C-304 110.9 -314.3 55.4 -324.5 0L0 0Z" fill="#938eb3"></path><path d="M0 162.2C-28.3 158 -56.6 153.7 -81.1 140.5C-105.6 127.3 -126.3 105.2 -139.1 80.3C-152 55.4 -157.1 27.7 -162.2 0L0 0Z" fill="#7286a0"></path></g><g transform="translate(0, 600)"><path d="M0 -486.7C86 -474.5 172 -462.3 243.4 -421.5C314.8 -380.8 371.5 -311.5 409.6 -236.5C447.8 -161.5 467.3 -80.7 486.7 0L0 0Z" fill="#e599b1"></path><path d="M0 -324.5C57.3 -316.3 114.7 -308.2 162.2 -281C209.8 -253.9 247.7 -207.7 273.1 -157.7C298.5 -107.7 311.5 -53.8 324.5 0L0 0Z" fill="#938eb3"></path><path d="M0 -162.2C28.7 -158.2 57.3 -154.1 81.1 -140.5C104.9 -126.9 123.8 -103.8 136.5 -78.8C149.3 -53.8 155.8 -26.9 162.2 0L0 0Z" fill="#7286a0"></path></g></svg>