<svg id="visual" viewBox="0 0 960 540" width="960" height="540" xmlns="http://www.w3.org/2000/svg" xmlns:xlink="http://www.w3.org/1999/xlink" version="1.1"><rect x="0" y="0" width="960" height="540" fill="#E09F7D"></rect><defs><linearGradient id="grad1_0" x1="43.8%" y1="0%" x2="100%" y2="100%"><stop offset="14.444444444444446%" stop-color="#ec4067" stop-opacity="1"></stop><stop offset="85.55555555555554%" stop-color="#ec4067" stop-opacity="1"></stop></linearGradient></defs><defs><linearGradient id="grad1_1" x1="43.8%" y1="0%" x2="100%" y2="100%"><stop offset="14.444444444444446%" stop-color="#ec4067" stop-opacity="1"></stop><stop offset="85.55555555555554%" stop-color="#e09f7d" stop-opacity="1"></stop></linearGradient></defs><defs><linearGradient id="grad2_0" x1="0%" y1="0%" x2="56.3%" y2="100%"><stop offset="14.444444444444446%" stop-color="#ec4067" stop-opacity="1"></stop><stop offset="85.55555555555554%" stop-color="#ec4067" stop-opacity="1"></stop></linearGradient></defs><defs><linearGradient id="grad2_1" x1="0%" y1="0%" x2="56.3%" y2="100%"><stop offset="14.444444444444446%" stop-color="#e09f7d" stop-opacity="1"></stop><stop offset="85.55555555555554%" stop-color="#ec4067" stop-opacity="1"></stop></linearGradient></defs><g transform="translate(960, 0)"><path d="M0 405C-66.5 387.6 -133 370.2 -195.5 338.6C-258 307 -316.5 261.3 -350.7 202.5C-385 143.7 -395 71.9 -405 0L0 0Z" fill="#e97666"></path><path d="M0 202.5C-33.3 193.8 -66.5 185.1 -97.7 169.3C-129 153.5 -158.2 130.6 -175.4 101.3C-192.5 71.9 -197.5 35.9 -202.5 0L0 0Z" fill="#ec4067"></path></g><g transform="translate(0, 540)"><path d="M0 -405C67.8 -389.9 135.7 -374.8 198 -342.9C260.3 -311.1 317.2 -262.5 350.7 -202.5C384.3 -142.5 394.7 -71.3 405 0L0 0Z" fill="#e97666"></path><path d="M0 -202.5C33.9 -195 67.8 -187.4 99 -171.5C130.2 -155.5 158.6 -131.2 175.4 -101.3C192.2 -71.3 197.3 -35.6 202.5 0L0 0Z" fill="#ec4067"></path></g></svg>