<svg id="visual" viewBox="0 0 1200 800" width="1200" height="800" xmlns="http://www.w3.org/2000/svg" xmlns:xlink="http://www.w3.org/1999/xlink" version="1.1"><rect x="0" y="0" width="1200" height="800" fill="#001220"></rect><path d="M0 376L25 383.2C50 390.3 100 404.7 150 420.5C200 436.3 250 453.7 300 440.7C350 427.7 400 384.3 450 360.2C500 336 550 331 600 337.8C650 344.7 700 363.3 750 371C800 378.7 850 375.3 900 393.2C950 411 1000 450 1050 450.8C1100 451.7 1150 414.3 1175 395.7L1200 377L1200 801L1175 801C1150 801 1100 801 1050 801C1000 801 950 801 900 801C850 801 800 801 750 801C700 801 650 801 600 801C550 801 500 801 450 801C400 801 350 801 300 801C250 801 200 801 150 801C100 801 50 801 25 801L0 801Z" fill="#715df2"></path><path d="M0 487L25 482.3C50 477.7 100 468.3 150 458.3C200 448.3 250 437.7 300 447.2C350 456.7 400 486.3 450 507C500 527.7 550 539.3 600 532.7C650 526 700 501 750 488.2C800 475.3 850 474.7 900 469.7C950 464.7 1000 455.3 1050 465.8C1100 476.3 1150 506.7 1175 521.8L1200 537L1200 801L1175 801C1150 801 1100 801 1050 801C1000 801 950 801 900 801C850 801 800 801 750 801C700 801 650 801 600 801C550 801 500 801 450 801C400 801 350 801 300 801C250 801 200 801 150 801C100 801 50 801 25 801L0 801Z" fill="#a446cf"></path><path d="M0 571L25 569.3C50 567.7 100 564.3 150 566.7C200 569 250 577 300 575.8C350 574.7 400 564.3 450 561C500 557.7 550 561.3 600 567.3C650 573.3 700 581.7 750 589.3C800 597 850 604 900 594C950 584 1000 557 1050 556.5C1100 556 1150 582 1175 595L1200 608L1200 801L1175 801C1150 801 1100 801 1050 801C1000 801 950 801 900 801C850 801 800 801 750 801C700 801 650 801 600 801C550 801 500 801 450 801C400 801 350 801 300 801C250 801 200 801 150 801C100 801 50 801 25 801L0 801Z" fill="#bd31ab"></path><path d="M0 685L25 685C50 685 100 685 150 669.8C200 654.7 250 624.3 300 618.8C350 613.3 400 632.7 450 641.5C500 650.3 550 648.7 600 636C650 623.3 700 599.7 750 595.3C800 591 850 606 900 610C950 614 1000 607 1050 612.7C1100 618.3 1150 636.7 1175 645.8L1200 655L1200 801L1175 801C1150 801 1100 801 1050 801C1000 801 950 801 900 801C850 801 800 801 750 801C700 801 650 801 600 801C550 801 500 801 450 801C400 801 350 801 300 801C250 801 200 801 150 801C100 801 50 801 25 801L0 801Z" fill="#c72288"></path><path d="M0 747L25 737.5C50 728 100 709 150 709.8C200 710.7 250 731.3 300 738.7C350 746 400 740 450 730.2C500 720.3 550 706.7 600 705.3C650 704 700 715 750 718.7C800 722.3 850 718.7 900 722.5C950 726.3 1000 737.7 1050 728.8C1100 720 1150 691 1175 676.5L1200 662L1200 801L1175 801C1150 801 1100 801 1050 801C1000 801 950 801 900 801C850 801 800 801 750 801C700 801 650 801 600 801C550 801 500 801 450 801C400 801 350 801 300 801C250 801 200 801 150 801C100 801 50 801 25 801L0 801Z" fill="#c62368"></path></svg>